<svg width="31" height="36" viewBox="0 0 31 36" fill="none" xmlns="http://www.w3.org/2000/svg">
<path d="M12.0138 20.7H0.750865C0.336388 20.7 0 20.3433 0 19.9038V0.796154C0 0.356677 0.336388 0 0.750865 0H12.0138C12.4283 0 12.7647 0.356677 12.7647 0.796154V19.9038C12.7647 20.3433 12.4283 20.7 12.0138 20.7Z" fill="#5454D4"/>
<path d="M12.0138 36H0.750865C0.336388 36 0 35.6256 0 35.1643V25.1358C0 24.6744 0.336388 24.3 0.750865 24.3H12.0138C12.4283 24.3 12.7647 24.6744 12.7647 25.1358V35.1643C12.7647 35.6256 12.4283 36 12.0138 36Z" fill="#D8D7E6"/>
<path d="M30.2491 11.7H18.9862C18.5717 11.7 18.2353 11.3256 18.2353 10.8643V0.835714C18.2353 0.3744 18.5717 0 18.9862 0H30.2491C30.6636 0 31 0.3744 31 0.835714V10.8643C31 11.3256 30.6636 11.7 30.2491 11.7Z" fill="#D8D7E6"/>
<path d="M30.2491 36H18.9862C18.5717 36 18.2353 35.6434 18.2353 35.2039V16.0962C18.2353 15.6567 18.5717 15.3 18.9862 15.3H30.2491C30.6636 15.3 31 15.6567 31 16.0962V35.2039C31 35.6434 30.6636 36 30.2491 36Z" fill="#5454D4"/>
</svg>
