<svg width="31" height="30" viewBox="0 0 31 30" fill="none" xmlns="http://www.w3.org/2000/svg">
<path d="M1.57895 7.54839H15V6H0.789474C0.352895 6 0 6.34606 0 6.77419V29.2258C0 29.6539 0.352895 30 0.789474 30H3.15789V28.4516H1.57895V7.54839Z" fill="#D8D7E6"/>
<path fill-rule="evenodd" clip-rule="evenodd" d="M17.5789 0H29.4211C30.2918 0 31 0.693136 31 1.54545V15.4545C31 16.3069 30.2918 17 29.4211 17H17.5789C16.7082 17 16 16.3069 16 15.4545V1.54545C16 0.693136 16.7082 0 17.5789 0ZM22.3158 13.5227C22.3158 14.1625 22.8463 14.6818 23.5 14.6818C24.1537 14.6818 24.6842 14.1625 24.6842 13.5227C24.6842 12.8829 24.1537 12.3636 23.5 12.3636C22.8463 12.3636 22.3158 12.8829 22.3158 13.5227Z" fill="#5454D4"/>
</svg>
