<svg width="98" height="98" viewBox="0 0 98 98" fill="none" xmlns="http://www.w3.org/2000/svg">
<path fill-rule="evenodd" clip-rule="evenodd" d="M49 98C76.062 98 98 76.062 98 49C98 21.938 76.062 0 49 0C21.938 0 0 21.938 0 49C0 76.062 21.938 98 49 98Z" fill="#5454D4"/>
<path d="M42.995 35.1256C42.805 34.9814 42.5531 34.9592 42.3425 35.0701C42.1325 35.181 42 35.406 42 35.6519V64.3478C42 64.5937 42.1325 64.8187 42.3425 64.9296C42.4313 64.9765 42.5288 65 42.625 65C42.7556 65 42.8856 64.9576 42.995 64.8741L61.745 50.5262C61.9056 50.4029 62 50.2072 62 49.9998C62 49.7924 61.9056 49.5968 61.745 49.4735L42.995 35.1256Z" fill="white"/>
</svg>
